<svg xmlns="http://www.w3.org/2000/svg" viewBox="0 0 225.78 202.6"><g id="Layer_2" data-name="Layer 2"><g id="Layer_1-2" data-name="Layer 1"><path d="M206.64,45.33C183.54,14.3,151.14,1,115.56,0,88,.19,64.59,6.41,43.94,20.93,18.39,38.9,2.21,63,.22,94.75c-2.35,37.58,14.17,66.38,44.53,87.31,27.23,18.76,57.82,23.93,90.1,18.5,28.32-4.77,52.17-18.25,70-40.79C232,125.58,232.87,80.55,206.64,45.33Zm-92-30.8a25.18,25.18,0,0,1,24.54,25.13,24.58,24.58,0,1,1-24.54-25.13Zm-3.54,174.29a24.69,24.69,0,0,1-24.24-24.75c.18-13.36,11.57-24.72,24.63-24.55s24.75,11.95,24.66,24.74A25,25,0,0,1,111.08,188.82Zm16.88-53c-9.07-4.36-18.14-5.54-27.52-2a33.46,33.46,0,0,0-18.59,17.13,24,24,0,0,1-30.52,11.74A24.71,24.71,0,0,1,36.57,133.3c2.85-11.22,15.08-19.59,26.6-18a25.25,25.25,0,0,1,7.58,2.33c17.83,8.83,37.85,3,46.86-15.55,4.87-10,17-14.9,27.5-12.06a24.77,24.77,0,0,1,18.19,24C163.11,131.86,144.25,143.63,128,135.8Zm27.33-49.53c-15.78-7.53-31-4.94-41.08,6.53-2.39,2.72-4.13,6-6,9.13-6.53,10.6-18.18,14.9-29.25,10.74s-18-15.73-16-27C64.82,74.26,76,64.61,87.62,65A29.3,29.3,0,0,1,99,68.08c17.21,8.26,35.8,2.25,44.63-14.71,5.61-10.77,17.2-16.2,28.47-13.35a24.81,24.81,0,0,1,18.39,23.4C190.25,81.86,171.26,93.89,155.29,86.27Z"/></g></g></svg>