<svg xmlns="http://www.w3.org/2000/svg" viewBox="0 0 520.69 413.52"><g id="Layer_2" data-name="Layer 2"><g id="Layer_1-2" data-name="Layer 1"><path d="M520.69,304.17c.11,26.78-6.65,50.91-23.77,71.91C461.41,419.66,394,425.79,351,389.75c-13-10.88-22-24.33-30.3-38.64-1.42-2.44-2.78-4.91-4.17-7.37,0-.92-10.85-18.44-15.9-26.42-4.91-7.75-9.86-15.44-16.46-21.9C269,280.6,251.76,280.5,236.6,295.3c-11.48,11.2-19,25.18-26.91,38.88-7.78,13.48-14.58,27.56-24.27,39.88a102.12,102.12,0,0,1-44.14,32.33,101.64,101.64,0,0,1-36.91,7.13A103.9,103.9,0,0,1,3.7,337.43,98.62,98.62,0,0,1,.23,304c.27-4,.11-8,.11-12q0-94,0-187.95C.4,51.52,37.15,8,89.28,1.11c40.52-5.32,74.08,8.42,98.08,42.48,10.19,14.46,17.32,30.72,26,46.07,5.43,9.58,11.15,19,19.08,26.75,16.68,16.36,36.86,16.92,54.45,1.55.5-.43,1.05-.8,1.58-1.2,13.92-15,22.31-33.4,31.93-51.06,7-12.88,14-25.79,24.58-36.23,22.45-22.15,49.62-31.78,80.86-29,44.21,3.92,79.09,33,91,75.17a109.18,109.18,0,0,1,3.74,30.11C520.57,171.88,520.42,238,520.69,304.17Z"/></g></g></svg>