<svg xmlns="http://www.w3.org/2000/svg" viewBox="0 0 371.82 134.83"><g id="Layer_2" data-name="Layer 2"><g id="Layer_1-2" data-name="Layer 1"><path d="M173,87.66c-10.18,2.56-13.49,0-13.82-10.54-.06-1.92,0-3.85,0-6.37-5.6,3.06-8.74,7.36-11.76,11.78-.8,1.17-1.5,2.41-2.25,3.62-1.35,2.18-3.38,2.24-5.51,1.64s-3.4-2-3.27-4.32c.11-2,.32-3.91.51-6.17C130.41,80.4,125.61,89,116.49,83a67.25,67.25,0,0,1-5.93,4.61c-7.4,4.62-12,5.12-15.11-3.28-3-.23-6,.22-8.28-.83S83,80.12,81.48,78c-2.22-3.09-2.53-3.23-5.27-.45C71.71,82.09,69,87.61,67,93.63c-.77,2.39-1.53,5.06-5.09,4.24-3-.7-4.38-2.75-3.76-6.54.59-3.63,1.55-7.21,2.39-11-6.71,3.2-13.18,6.51-19.83,9.38C32.2,93.4,23.56,96.89,13.88,96,4,95-1.64,87.32.43,77.5c2-9.57,7-17.66,12.47-25.5,9.15-13.15,20-24.74,33.19-33.9,5.49-3.82,11.93-6.28,18-9.31,3.34-1.67,5.35.05,7,2.8,1.87,3.18,2,7.06-.12,8.85-3.24,2.71-6.66,5.21-10.12,7.63-2.64,1.83-3.27-.59-4.21-2.54-10.22,7.75-20,15.91-28,25.76-6,7.34-10.89,15.55-16.15,23.47a18.39,18.39,0,0,0-2,5.17c-1.34,4.74.47,7.57,5.36,7.23a66.83,66.83,0,0,0,16.12-2.73c9.84-3.22,19.46-7.14,29.07-11a7,7,0,0,0,3.28-3.94C70.6,50.85,76.78,32.18,83,13.53a14.23,14.23,0,0,1,.66-1.5c1.71-3.55,3.37-4.5,6-3.4,3.68,1.55,5,4.4,3.65,7.9Q84,41.25,74.82,66c0,.05.09.16.24.42a15.92,15.92,0,0,0,1.66-.71c5.92-3.25,10.77-1.25,12.61,5.22,1.72,6.07,3.17,6.62,8,2.42,3.12-2.73,5.67-6.12,8.8-8.83a25.52,25.52,0,0,1,7.25-4.33,6.19,6.19,0,0,1,8.29,4.63c.3,1.6-.61,3.42-1,5.26,3.53-.3,5.69,1.88,6.79,6.88,4.69-5.34,8.91-9.88,12.81-14.67,2.28-2.8,3.92-3.54,6.92-2.21s2.41,3.76,1.9,6.15c-.25,1.13-.6,2.24-1.06,4,2.52-2.1,4.42-3.91,6.53-5.41,6.4-4.56,12-2.06,12.72,5.72.29,3,.22,6.14.34,9.21,0,.92.17,1.84.29,3.1,3.59-1.42,5-4.1,6.67-6.85a109.07,109.07,0,0,1,8.34-12.46c2.18-2.74,5.41-4,8.4-3.09C192.46,51,193,41.4,195,32.16c1.67-7.72,4.95-15.1,7.72-22.57A16.4,16.4,0,0,1,205.88,5c1.78-2.1,4-3.67,6.89-2.52a6.38,6.38,0,0,1,4.29,6.74c-.58,6.42-.82,13-2.54,19.15-3.36,12-7.63,23.71-11.51,35.55a15.79,15.79,0,0,0-.94,3.13c-.43,4,2.62,6.28,6.25,4.51,2.94-1.43,5.74-3,6.38-6.88.44-2.7,3.66-3.62,7.09-2.49,2.55.85,3.38,2.92,2.54,5.72-.92,3-1.64,6.14-2.65,10,7.06-2.27,10.58-6.9,13.77-11.71,5.75-8.66,8.86-18.49,12.13-28.27,3.73-11.2,7.83-22.28,11.93-33.35C261,.54,263.2-.71,265.68.37c2.91,1.26,4.65,6.1,3.27,9.07-1.84,4-4,7.8-5.46,11.89C259.62,32,256,42.76,252.33,53.49l.81.42c3.49-4.34,7-8.66,10.45-13,2.39-3,4.36-3.81,6.56-2.35a5.34,5.34,0,0,1,1.23,8c-5.9,6.43-12,12.71-18.32,18.73-1.89,1.8-1.87,2.8-.32,4.45,4.08,4.37,8.6,8.06,15,10-3.8-6.79-.83-12.26,2.51-17.53a30.33,30.33,0,0,1,14.55-12.35,8.3,8.3,0,0,1,6.58.92c1.32.86,2,3.56,1.95,5.44,0,2.79-4,5.15-7.72,5.35a5.29,5.29,0,0,0-3.4,1.22c-2.64,3-5,6.28-7.46,9.45l.8,1.06a17.55,17.55,0,0,0,3.66-1.8c4.42-3.6,8.82-7.23,13-11.07,2.35-2.15,4.18-1,6.14.26s3.2,2.92,2.12,5.52c-2.48,6-1.25,8.3,5.21,8.5a143.08,143.08,0,0,0,18-.73c15.8-1.53,30.74-6.61,45.74-11.39a20.22,20.22,0,0,1,2.33-.3A27.63,27.63,0,0,1,369.54,64,136.47,136.47,0,0,1,313,82.63c-8.82.83-16.88-.51-22.91-7.71-5.37,3.45-9.43,9-16.9,8.69l1.51,3.12c-5.59,1.74-10.49-.2-14.92-2.46s-8.41-5.7-12.89-8.84l-2,11.48a22.13,22.13,0,0,1-.48,2.58c-.59,1.91-.71,4.52-3.62,4.15a5.38,5.38,0,0,1-4.29-5.87c.8-5.29,1.71-10.56,2.14-16.12-.42.6-.78,1.24-1.26,1.8-2.84,3.29-5.34,7-8.65,9.74-5.55,4.59-12.21,2.39-14.73-4.36-.23-.61-.44-1.22-.76-2.12-5.44,3-10.83,4.8-15.63-.77-2.52,4.13-4.88,8.11-7.37,12A29.77,29.77,0,0,1,187,91.71c-2.33,2.54-5,4.43-8.66,3.35S173.18,91.25,173,87.66Zm-54.1-17c-1.65-.61-3.21-1.73-3.87-1.34-4.35,2.6-8.23,5.79-10.12,11Zm89.44-53.08a85.64,85.64,0,0,0-9.18,32.48ZM190.19,71.7,189,71q-3.15,5.76-6.29,11.51l.89.49Z"/><path d="M249.09,48.67c-.08,4.69-2.81,7.82-6.7,7.67-3.57-.13-6.33-3.4-6.23-7.39.11-4.36,2.79-7.27,6.72-7.28S249.16,44.19,249.09,48.67Z"/><path d="M200.07,115.78c-14.22.75-30.45,1.55-46.67,2.5a414.77,414.77,0,0,0-57.09,7.32c-11.54,2.3-22.86,5.7-34.31,8.49a19.69,19.69,0,0,1-6.63.67c-2.56-.28-3.24-2.54-1.33-4.32a15.85,15.85,0,0,1,5.84-3.83c10-2.94,20-6.06,30.17-8.12,11.12-2.24,22.42-3.69,33.7-4.91,11-1.19,22-1.93,33-2.35,16.52-.62,33.06-1.26,49.58-1,15.76.25,31.56,1.16,47.25,2.71,12.44,1.24,24.75,3.83,37.1,5.94,1.73.29,4.57.51,4.1,3s-2.95,1.09-4.66.9c-16.74-1.82-33.46-4-50.24-5.33C227.35,116.38,214.71,116.34,200.07,115.78Z"/></g></g></svg>